HIERARCHY
ROOT Hips
{
 OFFSET 0.000000 0.000000 0.000000
 CHANNELS 6 Xposition Yposition Zposition Yrotation Xrotation Zrotation
 JOINT Chest
 {
  OFFSET 0.000000 10.265206 0.006595
  CHANNELS 3 Yrotation Xrotation Zrotation
  JOINT Chest2
  {
   OFFSET 0.000000 11.389044 -0.011980
   CHANNELS 3 Yrotation Xrotation Zrotation
   JOINT Chest3
   {
    OFFSET 0.000000 10.290982 0.000000
    CHANNELS 3 Yrotation Xrotation Zrotation
    JOINT Chest4
    {
     OFFSET 0.000000 10.290982 0.000000
     CHANNELS 3 Yrotation Xrotation Zrotation
     JOINT Neck
     {
      OFFSET 0.000000 14.367993 0.000000
      CHANNELS 3 Yrotation Xrotation Zrotation
      JOINT Head
      {
       OFFSET 0.000000 9.574020 -0.028490
       CHANNELS 3 Yrotation Xrotation Zrotation
       End Site
       {
        OFFSET 0.000000 18.400023 -0.014881
       }
      }
     }
     JOINT RightCollar
     {
      OFFSET -3.015571 8.009391 0.000000
      CHANNELS 3 Yrotation Xrotation Zrotation
      JOINT RightShoulder
      {
       OFFSET -13.867120 0.000000 0.000000
       CHANNELS 3 Yrotation Xrotation Zrotation
       JOINT RightElbow
       {
        OFFSET -29.171974 0.000000 0.000000
        CHANNELS 3 Yrotation Xrotation Zrotation
        JOINT RightWrist
        {
         OFFSET -24.013854 0.000000 0.006497
         CHANNELS 3 Yrotation Xrotation Zrotation
         End Site
         {
          OFFSET -18.051397 0.000000 0.000000
         }
        }
       }
      }
     }
     JOINT LeftCollar
     {
      OFFSET 3.015571 8.009391 0.000000
      CHANNELS 3 Yrotation Xrotation Zrotation
      JOINT LeftShoulder
      {
       OFFSET 13.867120 0.000000 0.000000
       CHANNELS 3 Yrotation Xrotation Zrotation
       JOINT LeftElbow
       {
        OFFSET 29.171974 0.000000 0.000000
        CHANNELS 3 Yrotation Xrotation Zrotation
        JOINT LeftWrist
        {
         OFFSET 24.013854 0.000000 0.006497
         CHANNELS 3 Yrotation Xrotation Zrotation
         End Site
         {
          OFFSET 18.051397 0.000000 0.000000
         }
        }
       }
      }
     }
    }
   }
  }
 }
 JOINT RightHip
 {
  OFFSET -8.283980 -0.032318 -0.003298
  CHANNELS 3 Yrotation Xrotation Zrotation
  JOINT RightKnee
  {
   OFFSET 0.000000 -43.567000 0.003120
   CHANNELS 3 Yrotation Xrotation Zrotation
   JOINT RightAnkle
   {
    OFFSET 0.000000 -42.556413 0.005276
    CHANNELS 3 Yrotation Xrotation Zrotation
    JOINT RightToe
    {
     OFFSET 0.000000 -7.926623 17.954935
     CHANNELS 3 Yrotation Xrotation Zrotation
     End Site
     {
      OFFSET 0.000000 -1.555762 6.841994
     }
    }
   }
  }
 }
 JOINT LeftHip
 {
  OFFSET 8.283980 -0.032318 -0.003298
  CHANNELS 3 Yrotation Xrotation Zrotation
  JOINT LeftKnee
  {
   OFFSET 0.000000 -43.567000 0.003120
   CHANNELS 3 Yrotation Xrotation Zrotation
   JOINT LeftAnkle
   {
    OFFSET 0.000000 -42.556413 0.005276
    CHANNELS 3 Yrotation Xrotation Zrotation
    JOINT LeftToe
    {
     OFFSET 0.000000 -7.926623 17.954935
     CHANNELS 3 Yrotation Xrotation Zrotation
     End Site
     {
      OFFSET 0.000000 -1.555762 6.841994
     }
    }
   }
  }
 }
}
MOTION
Frames: 14
Frame Time: 0.033333
-140.883862 95.891520 -162.744887 -101.481530 -10.030906 -1.310260 2.060239 3.992394 0.389622 1.272887 2.493376 0.258875 1.017273 1.995171 0.202639 0.762216 1.496721 0.148642 1.068443 20.399866 -0.328740 1.212091 -4.377811 -0.595838 1.918674 2.142282 8.887488 5.694097 0.132679 74.701907 13.642423 30.598861 -0.340842 -1.565005 5.417808 -4.393671 0.651613 1.018578 -12.730893 -7.910772 -3.164974 -71.624752 -6.745282 30.321571 2.041352 1.909948 11.034163 2.309691 -12.382788 12.274400 -2.946732 -9.283914 -0.270745 -1.508681 12.659436 -2.894002 2.099766 0.003006 -0.073833 0.016998 7.301794 12.656001 3.139616 9.775119 1.608761 2.923242 8.094228 -3.347477 -3.555137 0.018958 0.072155 0.026044
-140.888116 95.890604 -162.731163 -101.566235 -10.027636 -1.303590 2.030395 3.983711 0.386339 1.257550 2.491419 0.258346 1.005008 1.993599 0.202273 0.753020 1.495537 0.148410 0.965334 20.485709 -0.285106 1.092607 -4.281635 -0.525746 1.945403 2.148428 8.891669 5.665193 0.056948 74.706277 13.635432 30.639139 -0.314798 -1.573790 5.385994 -4.428752 0.698864 1.039756 -12.711896 -7.927063 -3.203461 -71.658263 -6.748103 30.241457 2.025785 1.902137 11.078590 2.301346 -12.344925 12.249698 -2.932019 -9.267780 -0.250640 -1.546069 12.689933 -2.918460 2.099277 0.002964 -0.065811 0.021578 7.318514 12.634416 3.119074 9.808340 1.652617 2.938514 8.118495 -3.369781 -3.566389 0.012067 0.066780 0.022708
-140.893375 95.890188 -162.707680 -101.648085 -10.018042 -1.310557 2.019226 3.975526 0.384710 1.252019 2.485549 0.259334 1.000583 1.988902 0.203093 0.749701 1.492014 0.149047 0.862693 20.575381 -0.258141 0.977454 -4.180611 -0.473491 1.955908 2.160598 8.882712 5.682805 0.021554 74.751308 13.652318 30.573795 -0.329895 -1.610590 5.421019 -4.439338 0.713059 1.033547 -12.705238 -7.956424 -3.174455 -71.657358 -6.764052 30.176324 2.036003 1.872082 11.102777 2.299066 -12.307339 12.207412 -2.915912 -9.254976 -0.193873 -1.571507 12.453059 -2.956905 2.112864 0.000857 -0.053117 0.019665 7.354494 12.616150 3.117236 9.841144 1.679168 2.930858 8.134400 -3.401972 -3.553630 0.004858 0.072189 0.016604
-140.895341 95.892170 -162.691017 -101.750120 -10.022561 -1.327830 2.026990 3.971130 0.395019 1.254810 2.481373 0.261490 1.002810 1.985567 0.204815 0.751367 1.489516 0.150337 0.787577 20.652547 -0.235098 0.892432 -4.093264 -0.431735 1.905360 2.159238 8.897589 5.760845 0.042380 74.771656 13.669237 30.505737 -0.327552 -1.614999 5.377522 -4.436759 0.695903 1.030165 -12.683130 -7.903352 -3.181584 -71.681441 -6.747233 30.242250 2.040693 1.876808 11.052192 2.323632 -12.275850 12.186489 -2.891539 -9.196475 -0.169771 -1.600670 12.440630 -2.969149 2.120563 0.003996 -0.051372 0.019982 7.416714 12.616001 3.130248 9.818139 1.691949 2.932298 8.190198 -3.417228 -3.549195 0.009590 0.071639 0.013989
-140.898077 95.895754 -162.676697 -101.819167 -10.023938 -1.318206 2.003276 3.966502 0.400480 1.240826 2.479466 0.267881 0.991603 1.984047 0.209979 0.742946 1.488381 0.154249 0.759094 20.698332 -0.230286 0.861150 -4.041105 -0.420099 1.902264 2.185683 8.893953 5.780686 0.025579 74.784168 13.678564 30.517018 -0.338901 -1.606411 5.347189 -4.422593 0.699144 1.056730 -12.746761 -7.903614 -3.193036 -71.631843 -6.720995 30.140065 2.021492 1.849239 11.058458 2.313482 -12.281153 12.174278 -2.902593 -9.171941 -0.170234 -1.612054 12.714387 -2.968299 2.108631 0.009742 -0.063260 0.020155 7.414684 12.625156 3.103622 9.824474 1.687535 2.927824 8.245719 -3.422286 -3.534699 -0.002155 0.068912 0.008493
-140.900325 95.893070 -162.660607 -101.883539 -10.016502 -1.312817 1.979306 3.962197 0.392160 1.227144 2.478108 0.268019 0.980659 1.982955 0.210139 0.734739 1.487558 0.154406 0.777276 20.739108 -0.224960 0.879440 -3.994128 -0.418677 1.898573 2.221674 8.926855 5.763700 -0.018856 74.793816 13.674355 30.514770 -0.337692 -1.617262 5.359447 -4.414869 0.723145 1.062634 -12.751066 -7.925481 -3.205614 -71.643889 -6.674812 30.074301 2.055983 1.837728 11.106225 2.324541 -12.298537 12.155176 -2.914363 -9.142766 -0.166973 -1.610401 12.829145 -2.970490 2.112223 0.006158 -0.069705 0.009288 7.392866 12.622370 3.065602 9.863593 1.682552 2.960635 8.272604 -3.427118 -3.553711 0.000281 0.071546 0.010860
-140.898604 95.895424 -162.648555 -101.951223 -10.006236 -1.325922 1.971524 3.970614 0.398054 1.222800 2.482706 0.267090 0.977185 1.986631 0.209404 0.732134 1.490312 0.153860 0.767380 20.760426 -0.226339 0.869292 -3.969750 -0.417889 1.892569 2.236161 8.948844 5.782531 -0.047424 74.827248 13.663197 30.461745 -0.371246 -1.610284 5.391377 -4.373662 0.732757 1.048808 -12.740177 -7.955555 -3.188364 -71.653459 -6.699759 30.076608 2.084004 1.809578 11.150638 2.341829 -12.270698 12.145364 -2.906731 -9.084920 -0.178036 -1.593534 12.581387 -2.951898 2.121428 0.005165 -0.064255 0.005527 7.414247 12.602381 3.091726 9.847656 1.708833 2.918339 8.306217 -3.452238 -3.527241 0.002077 0.072516 0.007963
-140.894089 95.895005 -162.642596 -102.017504 -10.004138 -1.321995 1.970012 3.978985 0.403988 1.221146 2.488266 0.270423 0.975848 1.991083 0.212066 0.731121 1.493656 0.155853 0.755062 20.776653 -0.237131 0.858717 -3.951180 -0.426560 1.854455 2.278721 8.961120 5.797441 -0.075029 74.819738 13.656923 30.496766 -0.359620 -1.608970 5.350530 -4.377871 0.720100 1.053251 -12.761363 -7.968274 -3.200044 -71.651948 -6.715108 30.092453 2.084367 1.807097 11.155569 2.343958 -12.228722 12.125021 -2.903971 -9.104382 -0.160323 -1.586347 12.750057 -2.954935 2.106312 0.006159 -0.071374 0.004190 7.461890 12.581341 3.097077 9.831101 1.742298 2.911220 8.335898 -3.469998 -3.523961 0.005667 0.069169 0.006834
-140.876736 95.895182 -162.636131 -102.064595 -9.991748 -1.318252 1.963936 3.980845 0.402257 1.220548 2.492315 0.271177 0.975365 1.994324 0.212664 0.730755 1.496087 0.156298 0.737215 20.794074 -0.229493 0.837997 -3.931408 -0.414329 1.845805 2.290126 8.986037 5.817660 -0.040958 74.815011 13.649201 30.500635 -0.366867 -1.618202 5.333390 -4.380711 0.727367 1.072333 -12.774874 -8.014291 -3.218447 -71.646710 -6.738582 30.041756 2.102195 1.802383 11.197268 2.320126 -12.212803 12.094076 -2.892944 -9.115020 -0.148463 -1.595948 12.919183 -2.969351 2.097153 0.004945 -0.066138 0.003698 7.460706 12.554120 3.093145 9.854412 1.743412 2.891112 8.325262 -3.466527 -3.501392 0.004238 0.072297 0.004860
-140.850339 95.897540 -162.634045 -102.113476 -9.975377 -1.317715 1.951324 3.984563 0.408848 1.212723 2.494127 0.273568 0.969097 1.995774 0.214600 0.726048 1.497176 0.157769 0.728667 20.815970 -0.241832 0.831814 -3.906255 -0.425528 1.869240 2.286887 8.975087 5.803577 -0.006447 74.824841 13.652467 30.492228 -0.356632 -1.643064 5.327753 -4.378924 0.743185 1.058799 -12.812847 -8.065654 -3.193286 -71.617386 -6.733745 29.978209 2.105444 1.788464 11.173258 2.309148 -12.204946 12.049649 -2.866033 -9.083813 -0.134389 -1.620487 12.627598 -2.946717 2.110077 0.006197 -0.065576 0.003249 7.488457 12.529727 3.097749 9.872132 1.719952 2.878434 8.299365 -3.439306 -3.482228 0.001725 0.070085 0.001601
-140.823704 95.896321 -162.644231 -102.141126 -9.942912 -1.314803 1.959967 3.987394 0.412743 1.212824 2.492599 0.274636 0.969174 1.994553 0.215457 0.726104 1.496261 0.158413 0.703196 20.834607 -0.249469 0.806495 -3.885051 -0.427810 1.847877 2.308515 8.970207 5.792627 -0.006935 74.842373 13.631657 30.501185 -0.372752 -1.628656 5.330364 -4.379537 0.721880 1.083297 -12.831839 -8.093333 -3.204594 -71.613958 -6.726545 29.946468 2.119641 1.801217 11.146840 2.293476 -12.187898 12.013093 -2.814711 -9.050974 -0.166994 -1.666358 12.360373 -2.895478 2.119969 0.007241 -0.076075 0.008727 7.526256 12.491564 3.121153 9.836204 1.701395 2.842041 8.287578 -3.428049 -3.467015 0.011942 0.076373 0.005596
-140.800644 95.897549 -162.647232 -102.165293 -9.908173 -1.303031 1.936499 3.997069 0.404201 1.199482 2.499678 0.269319 0.958518 2.000202 0.211238 0.718124 1.500488 0.155275 0.704009 20.866673 -0.246087 0.806688 -3.848177 -0.424438 1.880200 2.296310 8.988368 5.758574 -0.014669 74.823102 13.610752 30.521941 -0.381214 -1.647475 5.273887 -4.389803 0.772390 1.068525 -12.849404 -8.146607 -3.223927 -71.591934 -6.711433 29.823978 2.128418 1.814332 11.155743 2.302448 -12.142447 11.970998 -2.801647 -9.107893 -0.177371 -1.665267 12.504833 -2.898148 2.115493 0.002474 -0.066711 0.001172 7.553779 12.432923 3.103997 9.808544 1.711590 2.853481 8.299301 -3.416608 -3.460587 0.011735 0.072100 0.002012
-140.781015 95.898329 -162.646111 -102.168672 -9.892056 -1.298681 1.935379 4.006702 0.414960 1.198968 2.505089 0.276601 0.958078 2.004543 0.217056 0.717773 1.503752 0.159632 0.693283 20.887572 -0.257101 0.797868 -3.824168 -0.433726 1.863195 2.281065 8.972959 5.752342 -0.005006 74.826320 13.565690 30.512276 -0.425458 -1.666717 5.285853 -4.417086 0.758362 1.060573 -12.909141 -8.171929 -3.180254 -71.550879 -6.747212 29.717324 2.123062 1.812774 11.111330 2.307098 -12.146865 11.948283 -2.805522 -9.098626 -0.187467 -1.652118 12.373856 -2.883824 2.121626 -0.000023 -0.061963 -0.004392 7.555044 12.407114 3.112103 9.809390 1.702459 2.825862 8.319453 -3.406380 -3.449169 0.012016 0.075880 0.006657
-140.764919 95.899994 -162.640401 -102.180672 -9.867671 -1.301131 1.918708 4.010623 0.413073 1.191075 2.507697 0.274571 0.951770 2.006623 0.215455 0.713047 1.505307 0.158449 0.707225 20.916538 -0.254306 0.812182 -3.790690 -0.434006 1.902510 2.280652 8.974378 5.839492 0.021001 74.819215 13.541961 30.392236 -0.433517 -1.668499 5.279281 -4.452196 0.773415 1.085965 -12.913569 -8.158895 -3.193087 -71.559836 -6.758980 29.654032 2.147398 1.785029 11.069454 2.307469 -12.128023 11.908678 -2.790554 -9.095952 -0.172655 -1.655373 12.270216 -2.882187 2.124105 0.000073 -0.060643 -0.003302 7.570633 12.356056 3.113205 9.826849 1.720915 2.827471 8.291850 -3.406113 -3.445690 0.007964 0.072063 0.006647
